<svg xmlns="http://www.w3.org/2000/svg" width="95" height="30" viewBox="0 0 95 30" fill="none">
<g clip-path="url(#clip0_2_1771)">
<path fill-rule="evenodd" clip-rule="evenodd" d="M0 3.1521H23.9463V5.4771C22.3116 4.9821 20.3663 4.7421 18.2456 5.33085C14.0998 6.47985 10.6266 7.7211 6.70915 5.4291V10.7128C10.6266 12.9531 14.0991 11.7126 18.2456 10.5628C20.3663 9.9756 22.3123 10.2149 23.9463 10.7084V12.0928C22.3116 11.5963 20.3663 11.3579 18.2456 11.9459C14.0998 13.0933 10.6266 14.3354 6.70915 12.0434V17.3286C10.6266 19.5666 14.0991 18.3261 18.2456 17.1786C20.3663 16.5913 22.3123 16.8291 23.9463 17.3241V27.0801H0V3.1521Z" fill="#009BDF"/>
<path fill-rule="evenodd" clip-rule="evenodd" d="M0 3.15213H23.9463V5.47713C22.3116 4.98213 20.3663 4.74213 18.2456 5.33088C14.0998 6.47988 10.6266 7.72113 6.70915 5.42913L6.70244 5.42688C6.69646 5.42388 6.70617 5.42688 6.69945 5.42388C3.95622 4.26363 1.84524 3.47238 0 3.22263V3.15063V3.15213Z" fill="#24407E"/>
<path fill-rule="evenodd" clip-rule="evenodd" d="M6.70691 5.42916V6.68916H6.70915V10.7129C10.6266 12.9532 14.0991 11.7127 18.2456 10.5629C20.3663 9.97566 22.3123 10.2149 23.9463 10.7084V12.0929C22.3116 11.5964 20.3663 11.3579 18.2456 11.9459C14.0998 13.0934 10.6266 14.3354 6.70915 12.0434V13.5974H0V3.22266C1.84524 3.47391 3.95622 4.26516 6.69945 5.42541C6.70617 5.42691 6.69646 5.42391 6.70244 5.42691L6.70691 5.42916Z" fill="#1B4D99"/>
<path fill-rule="evenodd" clip-rule="evenodd" d="M23.9463 18.7079V24.4184C23.3694 24.3168 22.7853 24.2626 22.1996 24.2564C18.6219 24.2564 15.0448 26.1794 11.4671 26.1794C8.18042 26.4471 3.47774 23.5761 0 22.5674V16.1624C3.0127 16.8681 7.66313 19.5816 10.3011 19.8839C10.578 19.9199 10.8774 19.9409 11.2073 19.9454H11.2655L11.276 19.9469H11.4014L11.4118 19.9454H11.582L11.6104 19.9439H11.6701L11.7 19.9424C12.8771 19.9154 13.949 19.7099 14.9709 19.4504H14.9724L15.0224 19.4376L15.0478 19.4324L15.0717 19.4264L15.1217 19.4144L15.1262 19.4129L15.171 19.4024L15.2023 19.3934L15.221 19.3889L15.2703 19.3769L15.2815 19.3739L15.3203 19.3649H15.3218L15.3695 19.3514L15.421 19.3394L15.436 19.3349L15.4711 19.3259L15.5144 19.3154L15.5203 19.3139L15.5703 19.3004L15.5927 19.2944L15.6196 19.2869L15.6704 19.2749L15.7204 19.2614L15.7487 19.2539L15.7704 19.2479L15.8212 19.2344L15.8271 19.2329L15.8712 19.2209L15.9055 19.2126L15.9719 19.1946L15.9854 19.1909L16.0727 19.1669L16.1235 19.1534L16.1436 19.1481L16.1735 19.1406L16.225 19.1271L16.2757 19.1121L16.3011 19.1061L16.3258 19.0986L16.3765 19.0851L16.3795 19.0836L16.428 19.0701L16.4594 19.0626L16.4773 19.0566L16.5288 19.0431L16.5392 19.0401L16.5795 19.0281L16.6191 19.0176L16.6311 19.0146L16.6818 18.9996L16.6982 18.9951L16.7333 18.9861L16.7781 18.9726L16.7848 18.9711L16.8356 18.9561L16.858 18.9501L16.8871 18.9426L16.9393 18.9276L16.9908 18.9141L17.0192 18.9059L17.0416 18.8991L17.0931 18.8841L17.1006 18.8826L17.1454 18.8699L17.1804 18.8609L17.1969 18.8564L17.2476 18.8414L17.2611 18.8369L17.3006 18.8264L17.3424 18.8144L17.3521 18.8114L17.4044 18.7979L17.4238 18.7919L17.4574 18.7829L17.5052 18.7694L17.5081 18.7679L17.5611 18.7529L17.5865 18.7454L17.6134 18.7379L17.6649 18.7244L17.6694 18.7229L17.7179 18.7094L17.7507 18.6989L17.7701 18.6944L17.8224 18.6794L17.8321 18.6764L17.8754 18.6644L17.915 18.6546L17.9284 18.6494L17.9806 18.6344L17.9971 18.6299L18.0336 18.6201L18.0799 18.6074L18.0866 18.6066L18.1389 18.5916L18.1628 18.5841L18.1912 18.5766L18.2456 18.5616L18.2486 18.5594H18.2516L18.2561 18.5586H18.2591L18.2621 18.5571L18.2673 18.5556L18.2695 18.5541H18.2725L18.2755 18.5526H18.2807L18.2859 18.5496H18.2912L18.2942 18.5481H18.2971L18.3016 18.5466L18.3046 18.5451H18.3076L18.3121 18.5436H18.3151V18.5421H18.318L18.321 18.5406H18.3255L18.3285 18.5391H18.3315L18.336 18.5376H18.3389L18.3419 18.5361L18.3464 18.5346H18.3494L18.3554 18.5331L18.3598 18.5316L18.3658 18.5301L18.3703 18.5286H18.374L18.3815 18.5271L18.3837 18.5256H18.3875L18.3919 18.5241H18.3949L18.3979 18.5226L18.4054 18.5211L18.4084 18.5196H18.4128L18.4158 18.5181H18.4188L18.4218 18.5166L18.4263 18.5151H18.4293L18.4323 18.5136H18.4367L18.4397 18.5121H18.4427L18.4472 18.5106H18.4502L18.4532 18.5091L18.4606 18.5076L18.4636 18.5061H18.4666C19.1339 18.3576 19.805 18.2511 20.5014 18.2249H20.5029C20.5604 18.2219 20.6171 18.2204 20.6761 18.2204H20.6806L20.7 18.2189H20.8732L20.8896 18.2204H20.968L20.9874 18.2219H21.0449L21.0598 18.2234H21.1023L21.1173 18.2249H21.1397L21.1591 18.2264H21.177L21.1971 18.2279H21.215L21.23 18.2294H21.2524L21.2718 18.2309H21.286L21.2904 18.2324H21.3098L21.3278 18.2339H21.3412L21.3479 18.2354H21.3658L21.3852 18.2369L21.3972 18.2384H21.4032L21.4211 18.2399H21.4405L21.4524 18.2414H21.4591L21.4785 18.2429L21.4965 18.2444H21.5084L21.5144 18.2459L21.5338 18.2474L21.5524 18.2489H21.5644L21.5704 18.2504H21.5719L21.6196 18.2534L21.6256 18.2549L21.6458 18.2564L21.6637 18.2579L21.7197 18.2624L21.7301 18.2639L21.7734 18.2684L21.7838 18.2699L21.8286 18.2744H21.8398L21.8652 18.2774L21.8831 18.2789L21.8936 18.2804L21.916 18.2834L21.9234 18.2849H21.9294L21.9369 18.2864C22.0712 18.3014 22.2086 18.3201 22.3452 18.3411L22.3706 18.3441L22.3959 18.3494L22.4236 18.3531L22.431 18.3546L22.4758 18.3621L22.6565 18.3936L22.6826 18.3981L22.7095 18.4041L22.7348 18.4086L22.746 18.4101L22.761 18.4131L22.7863 18.4191L22.7968 18.4206L22.8117 18.4236L22.8371 18.4281L22.849 18.4311L22.8625 18.4341L22.8886 18.4401L22.9005 18.4416L22.914 18.4446L22.9386 18.4506L22.9521 18.4536L22.964 18.4551L22.9894 18.4611L23.0028 18.4641L23.0148 18.4671L23.0401 18.4716L23.0536 18.4746L23.0648 18.4776L23.0901 18.4836L23.1163 18.4881L23.1417 18.4941L23.1566 18.4986L23.1655 18.5001L23.1909 18.5061L23.2058 18.5106L23.2148 18.5121L23.2409 18.5181L23.2574 18.5226L23.2648 18.5241L23.2902 18.5301L23.3074 18.5346L23.3148 18.5361L23.3402 18.5421L23.3641 18.5481L23.3895 18.5556L23.438 18.5676L23.4574 18.5721L23.4873 18.5796L23.5067 18.5856L23.5119 18.5871L23.5358 18.5924L23.5567 18.5991L23.5612 18.6006L23.585 18.6066L23.6052 18.6119H23.6097L23.6336 18.6194L23.6545 18.6254H23.6575L23.6813 18.6329L23.703 18.6396H23.706L23.7299 18.6471L23.7508 18.6531L23.7537 18.6546L23.8008 18.6674H23.8023L23.8262 18.6749L23.8485 18.6809H23.85L23.8724 18.6884L23.921 18.7034L23.9448 18.7094L23.9463 18.7079Z" fill="#0079C0"/>
<path fill-rule="evenodd" clip-rule="evenodd" d="M6.70915 12.0765V17.3287C10.6266 19.5667 14.0991 18.3262 18.2456 17.1787C20.3663 16.5915 22.3123 16.8292 23.9463 17.3242V18.708C23.4218 18.5477 22.8868 18.4242 22.3452 18.3382C22.196 18.3155 22.0464 18.2955 21.8966 18.2782H21.8936L21.8846 18.2775C21.4856 18.2326 21.0843 18.2121 20.6828 18.216C19.9214 18.2295 19.1907 18.3412 18.4688 18.5032C18.3942 18.5212 18.3195 18.5407 18.2456 18.561C17.111 18.876 16.0287 19.1962 14.9724 19.4505C13.8736 19.7295 12.7166 19.9455 11.4312 19.9455C11.0117 19.95 10.64 19.9275 10.3011 19.884C7.2145 19.5292 3.51357 16.9845 0 16.1617V9.47925C0.298583 9.55125 0.618066 9.63525 0.952479 9.73425C2.77906 10.2765 5.03037 11.2717 6.65615 12.021L6.70841 12.0435L6.70915 12.0765Z" fill="#0061AB"/>
<path fill-rule="evenodd" clip-rule="evenodd" d="M0 9.47609V8.45459C2.34761 9.54209 5.06396 11.3106 6.70915 12.0433C3.97264 10.8793 1.83554 9.90959 0 9.47609ZM6.7211 12.0508L6.71139 12.0448L6.7211 12.0493V12.0508Z" fill="#25386E"/>
<path fill-rule="evenodd" clip-rule="evenodd" d="M0 16.1615V15.134C2.35358 16.2215 5.00201 18.0485 6.65093 18.7843C3.90472 17.6158 1.84151 16.5943 0 16.1615Z" fill="#084D8B"/>
<path fill-rule="evenodd" clip-rule="evenodd" d="M0 3.1521H2.58647C4.03908 3.9126 5.51408 4.8021 6.70915 5.4291C3.95622 4.2651 1.84972 3.4746 0 3.2226V3.1521Z" fill="#332C6A"/>
<path fill-rule="evenodd" clip-rule="evenodd" d="M0 22.5674V21.7184C2.14233 22.7114 4.5825 24.2129 6.24038 25.0244C5.96213 24.9158 5.68493 24.8046 5.40883 24.6906C5.04754 24.5384 4.69671 24.3929 4.35781 24.2526C2.82534 23.6046 1.32496 22.9521 0 22.5674Z" fill="#065F9D"/>
<mask id="mask0_2_1771" style="mask-type:luminance" maskUnits="userSpaceOnUse" x="29" y="3" width="19" height="25">
<path d="M42.8696 3.1582H47.8388V12.9585H42.8696V3.1582ZM29.2617 3.1582H34.2316V12.9585H29.2625V3.1582H29.2617ZM29.2617 12.9585H47.8388V17.2837H29.2632V12.9585H29.2617ZM29.2617 17.2837H34.2316V27.0825H29.2625V17.283L29.2617 17.2837ZM42.8696 17.2837H47.8388V27.0825H42.8696V17.283V17.2837Z" fill="white"/>
</mask>
<g mask="url(#mask0_2_1771)">
<path fill-rule="evenodd" clip-rule="evenodd" d="M27.3008 2.23804H47.7194V27.132H27.3008V2.23804Z" fill="url(#paint0_linear_2_1771)"/>
</g>
<mask id="mask1_2_1771" style="mask-type:luminance" maskUnits="userSpaceOnUse" x="73" y="3" width="22" height="25">
<path d="M93.207 3.1582L84.9169 13.908L94.7746 27.0832H88.5969L81.7056 17.118L78.4137 20.8792V27.0817H73.4453V3.1582H78.4152V14.097L87.1488 3.1582H93.207Z" fill="white"/>
</mask>
<g mask="url(#mask1_2_1771)">
<path fill-rule="evenodd" clip-rule="evenodd" d="M73.1484 3.00439H95.1092V27.1319H73.1484V3.00439Z" fill="url(#paint1_linear_2_1771)"/>
</g>
<mask id="mask2_2_1771" style="mask-type:luminance" maskUnits="userSpaceOnUse" x="50" y="2" width="21" height="26">
<path d="M67.2484 21.3907C65.9228 22.2665 64.3704 22.732 62.7838 22.7294C61.7308 22.7344 60.6873 22.5296 59.7136 22.1269C58.7399 21.7242 57.8552 21.1317 57.1107 20.3834C55.5872 18.8684 54.7534 16.8907 54.7534 14.7464C54.7534 12.6022 55.5857 10.5877 57.1115 9.07043C57.8559 8.32243 58.7405 7.73005 59.7141 7.32751C60.6877 6.92497 61.731 6.72025 62.7838 6.72518C64.3738 6.72518 65.9316 7.18868 67.2499 8.06393L70.3775 4.98668C68.201 3.30367 65.5302 2.39389 62.7838 2.39993C55.9403 2.39993 50.4023 7.95218 50.4023 14.7472C50.4023 21.5272 55.9634 27.0547 62.7838 27.0547C65.5554 27.0547 68.1852 26.1524 70.376 24.5009L67.2484 21.3914V21.3907Z" fill="white"/>
</mask>
<g mask="url(#mask2_2_1771)">
<path fill-rule="evenodd" clip-rule="evenodd" d="M50.0312 2.23877H70.4506V27.132H50.0312V2.23877Z" fill="url(#paint2_linear_2_1771)"/>
</g>
</g>
<defs>
<linearGradient id="paint0_linear_2_1771" x1="1079.74" y1="2496.72" x2="1030.48" y2="6.11646" gradientUnits="userSpaceOnUse">
<stop stop-color="#009BDF"/>
<stop offset="1" stop-color="#24407E"/>
</linearGradient>
<linearGradient id="paint1_linear_2_1771" x1="1205.07" y1="2420.68" x2="1162.05" y2="6.58605" gradientUnits="userSpaceOnUse">
<stop stop-color="#009BDF"/>
<stop offset="1" stop-color="#24407E"/>
</linearGradient>
<linearGradient id="paint2_linear_2_1771" x1="1102.5" y1="2496.64" x2="1053.26" y2="6.11695" gradientUnits="userSpaceOnUse">
<stop stop-color="#009BDF"/>
<stop offset="1" stop-color="#24407E"/>
</linearGradient>
<clipPath id="clip0_2_1771">
<rect width="94.8" height="30" fill="white"/>
</clipPath>
</defs>
</svg>