<?xml version="1.0" encoding="UTF-8"?>
<svg version="1.1" xmlns="http://www.w3.org/2000/svg" width="281" height="261">
<path d="M0 0 C21.38266205 -0.77403302 43.23879764 7.91488545 58.96484375 22.21875 C62.4394364 25.75845213 65.71787122 29.47015749 68.96484375 33.21875 C66.23455446 34.58389465 64.74388248 33.6201916 61.94921875 32.765625 C58.66414583 31.86028994 55.34991429 31.4849915 51.96484375 31.21875 C51.27648437 31.16460937 50.588125 31.11046875 49.87890625 31.0546875 C36.82214489 30.53618795 24.13738928 35.90977711 14.15234375 44.15625 C13.43046875 44.836875 12.70859375 45.5175 11.96484375 46.21875 C41.15840824 57.49586271 82.37886871 53.7105053 111.96484375 46.21875 C112.71975098 46.03441406 113.4746582 45.85007813 114.25244141 45.66015625 C135.70493361 40.36437184 157.75605305 32.00670117 176.03125 19.43359375 C177.96484375 18.21875 177.96484375 18.21875 179.96484375 18.21875 C179.44610402 23.44764644 176.7932696 27.34952121 174.08984375 31.71875 C173.59589111 32.51829102 173.10193848 33.31783203 172.59301758 34.14160156 C167.98529744 41.43965695 162.84707354 47.92035198 156.96484375 54.21875 C156.44583496 54.7854541 155.92682617 55.3521582 155.39208984 55.93603516 C130.13010235 83.31136489 95.88511054 98.41135041 58.8125 100.38671875 C34.93159068 100.55418656 12.33489273 95.91425514 -9.03515625 85.21875 C-10.21851563 84.63996094 -11.401875 84.06117188 -12.62109375 83.46484375 C-35.0287164 71.99490864 -52.87047633 53.40092588 -66.03515625 32.21875 C-66.62039062 31.27773437 -67.205625 30.33671875 -67.80859375 29.3671875 C-70.35584821 25.04670617 -70.35584821 25.04670617 -71.03515625 23.21875 C-70.03515625 20.21875 -70.03515625 20.21875 -66.859375 18.3515625 C-65.48636344 17.6702805 -64.106973 17.00175686 -62.72265625 16.34375 C-61.99208008 15.99078857 -61.26150391 15.63782715 -60.50878906 15.27416992 C-58.3566078 14.24313262 -56.19678478 13.22979248 -54.03515625 12.21875 C-53.03613281 11.73792969 -52.03710938 11.25710937 -51.0078125 10.76171875 C-34.86864068 3.46783191 -17.47783042 1.25966345 0 0 Z " fill="#0DB5A2" transform="translate(91.03515625,100.78125)"/>
<path d="M0 0 C10.72925226 9.41964798 20.05557642 19.53190397 27.76416016 31.54882812 C28.15635742 32.14953125 28.54855469 32.75023438 28.95263672 33.36914062 C35.76416016 43.83983896 35.76416016 43.83983896 35.76416016 47.54882812 C7.2602118 62.86377227 -26.59651936 73.93067555 -59.17724609 65.52148438 C-76.09658564 60.14100475 -94.79996191 50.27529134 -104.23583984 34.54882812 C-103.63900391 34.69320312 -103.04216797 34.83757812 -102.42724609 34.98632812 C-85.7073459 38.5638402 -69.9841351 37.43553531 -55.33349609 28.00195312 C-50.5817636 24.927481 -50.5817636 24.927481 -47.23583984 20.54882812 C-51.76521832 19.95418905 -56.29705077 19.38565947 -60.83251953 18.83984375 C-62.40137332 18.64987283 -63.96976527 18.45603654 -65.53759766 18.2578125 C-115.35667449 12.03836087 -165.56566177 21.20154098 -208.84545898 47.06005859 C-213.04009063 49.54882812 -213.04009063 49.54882812 -215.23583984 49.54882812 C-206.98369252 21.50007866 -178.87295488 -3.06956367 -154.11083984 -16.57617188 C-104.74988387 -41.20447126 -42.59224137 -35.99626394 0 0 Z " fill="#35B4E1" transform="translate(235.23583984375,44.451171875)"/>
<path d="M0 0 C0 1.98 0 3.96 0 6 C1.2375 5.9175 2.475 5.835 3.75 5.75 C6.67247559 5.78109017 7.87789297 5.93284113 10.5 7.375 C12.78730387 11.37778177 12.80095999 15.49730599 12 20 C10.78515625 22.28515625 10.78515625 22.28515625 9 24 C6.625 24.49609375 6.625 24.49609375 4 24.4375 C3.13375 24.43621094 2.2675 24.43492187 1.375 24.43359375 C-1.47584503 23.91312698 -2.21928492 23.24057182 -4 21 C-4.34057617 19.09887695 -4.34057617 19.09887695 -4.29296875 16.98828125 C-4.28330078 16.23095703 -4.27363281 15.47363281 -4.26367188 14.69335938 C-4.23853516 13.90767578 -4.21339844 13.12199219 -4.1875 12.3125 C-4.16719727 11.11657227 -4.16719727 11.11657227 -4.14648438 9.89648438 C-4.11117089 7.93070033 -4.05736447 5.96526418 -4 4 C-6.64 4 -9.28 4 -12 4 C-12 10.6 -12 17.2 -12 24 C-13.32 24 -14.64 24 -16 24 C-16 16.41 -16 8.82 -16 1 C-3.375 0 -3.375 0 0 0 Z M0 9 C-0.02687279 10.81242052 -0.04633715 12.62495233 -0.0625 14.4375 C-0.07410156 15.44683594 -0.08570312 16.45617187 -0.09765625 17.49609375 C-0.28612676 19.94021067 -0.28612676 19.94021067 1 21 C3.45809998 21.2500773 3.45809998 21.2500773 6 21 C8.15705515 19.2435669 8.15705515 19.2435669 8.265625 17.125 C8.26046875 16.42375 8.2553125 15.7225 8.25 15 C8.25515625 14.29875 8.2603125 13.5975 8.265625 12.875 C8.15705515 10.7564331 8.15705515 10.7564331 6 9 C2.91652174 8.83318891 2.91652174 8.83318891 0 9 Z " fill="#1CAD9D" transform="translate(94,223)"/>
<path d="M0 0 C1.33525717 0.07973476 2.67412083 0.10771338 4.01171875 0.09765625 C4.76904297 0.09443359 5.52636719 0.09121094 6.30664062 0.08789062 C7.48516602 0.07532227 7.48516602 0.07532227 8.6875 0.0625 C9.88342773 0.05573242 9.88342773 0.05573242 11.10351562 0.04882812 C13.06904257 0.0370585 15.03453085 0.01912348 17 0 C17 0.99 17 1.98 17 3 C15.02 3 13.04 3 11 3 C11 9.6 11 16.2 11 23 C9.68 23 8.36 23 7 23 C7 16.4 7 9.8 7 3 C4.36 3 1.72 3 -1 3 C-1.33 3.66 -1.66 4.32 -2 5 C-4.475 4.01 -4.475 4.01 -7 3 C-9.28218629 4.71163972 -10.82688375 6.01766591 -11.3359375 8.90625 C-11.40722038 12.72701213 -11.17750034 15.7337495 -9 19 C-5.53058454 18.54177532 -2.32604951 18.10868317 1 17 C0.34 18.98 -0.32 20.96 -1 23 C-4.38079335 23.29033531 -7.62797616 23.43407528 -11 23 C-14.89298438 19.48681898 -15.90967341 16.37748047 -16.25 11.1875 C-16.19055403 7.15260452 -15.26919617 4.40379426 -13 1 C-9.05134557 -1.99553095 -4.51033855 -1.50344618 0 0 Z " fill="#25AA9A" transform="translate(196,224)"/>
<path d="M0 0 C0.99 0 1.98 0 3 0 C3 1.98 3 3.96 3 6 C3.61488281 5.96519531 4.22976562 5.93039063 4.86328125 5.89453125 C5.67152344 5.86746094 6.47976562 5.84039062 7.3125 5.8125 C8.51326172 5.76029297 8.51326172 5.76029297 9.73828125 5.70703125 C12 6 12 6 15 9 C15.33 6.03 15.66 3.06 16 0 C17.32 0 18.64 0 20 0 C20 7.92 20 15.84 20 24 C18.68 24 17.36 24 16 24 C15.67 23.01 15.34 22.02 15 21 C14.41412109 21.73283203 14.41412109 21.73283203 13.81640625 22.48046875 C11.42506893 24.48096384 10.01741328 24.37146741 6.9375 24.3125 C6.05964844 24.30863281 5.18179688 24.30476563 4.27734375 24.30078125 C2 24 2 24 0 22 C-0.22705078 19.75341797 -0.22705078 19.75341797 -0.1953125 16.9921875 C-0.18886719 16.00605469 -0.18242188 15.01992187 -0.17578125 14.00390625 C-0.15902344 12.97136719 -0.14226563 11.93882812 -0.125 10.875 C-0.11597656 9.83472656 -0.10695312 8.79445312 -0.09765625 7.72265625 C-0.07403747 5.14820908 -0.04110149 2.57421788 0 0 Z M3 10 C2.80058132 12.06772734 2.80058132 12.06772734 2.8125 14.4375 C2.79832031 15.24058594 2.78414062 16.04367188 2.76953125 16.87109375 C2.79837644 19.21630633 2.79837644 19.21630633 5 21 C7.5 21.41666667 7.5 21.41666667 10 21 C12.31332486 17.53001271 12.33957563 16.07490752 12 12 C11.34 11.01 10.68 10.02 10 9 C6.2021469 8.43796817 6.2021469 8.43796817 3 10 Z " fill="#1AAE9F" transform="translate(38,223)"/>
<path d="M0 0 C3.93896364 3.60133819 5.3247229 7.82287555 6 13 C6.14541636 16.67418668 6.12158174 20.32552973 6 24 C4.68 24 3.36 24 2 24 C2 21.69 2 19.38 2 17 C-0.97 17 -3.94 17 -7 17 C-7 19.31 -7 21.62 -7 24 C-8.32 24 -9.64 24 -11 24 C-11.57329843 8.88190809 -11.57329843 8.88190809 -8 2 C-4.75846834 -0.1610211 -3.76307099 -0.64247553 0 0 Z M-4 4 C-6.29045014 8.81209901 -6.29045014 8.81209901 -7 14 C-4.03 14 -1.06 14 2 14 C1.690625 12.72125 1.38125 11.4425 1.0625 10.125 C0.88847656 9.40570313 0.71445313 8.68640625 0.53515625 7.9453125 C0.05153008 5.9414343 0.05153008 5.9414343 -1 4 C-1.99 4 -2.98 4 -4 4 Z " fill="#27A89A" transform="translate(244,223)"/>
<path d="M0 0 C2.66988816 2.08947769 4.45640785 3.74555657 5.8125 6.875 C6.33330508 12.77745759 6.56717213 17.80649974 2.703125 22.61328125 C-0.01187988 24.82389302 -2.46026799 24.4708689 -5.83984375 24.35546875 C-8 24 -8 24 -10.5 22.25 C-13.4290661 17.85640086 -13.57026542 13.20242136 -13 8 C-10.35156784 1.18974587 -7.35967401 -0.88823652 0 0 Z M-7 4 C-9.48976468 7.73464701 -9.54895415 11.66840863 -9 16 C-8.00804027 19.01981101 -8.00804027 19.01981101 -6 21 C-3.5 21.75 -3.5 21.75 -1 21 C1.28276734 19.18952935 1.90092778 17.73964875 2.28515625 14.87109375 C2.41876934 11.3448699 2.30305243 8.69028609 0.875 5.4375 C-1.76621719 3.41256682 -3.76578783 3.71251447 -7 4 Z " fill="#22AA9C" transform="translate(156,223)"/>
<path d="M0 0 C1.32 0 2.64 0 4 0 C4 3.3 4 6.6 4 10 C7.06399866 9.33029489 7.06399866 9.33029489 8.16796875 7.15234375 C8.67263672 6.05599609 8.67263672 6.05599609 9.1875 4.9375 C9.53167969 4.20402344 9.87585937 3.47054687 10.23046875 2.71484375 C10.48441406 2.14894531 10.73835938 1.58304688 11 1 C12.32 1 13.64 1 15 1 C14.01 4.63 13.02 8.26 12 12 C12.66 12.66 13.32 13.32 14 14 C14.6328125 16.3828125 14.6328125 16.3828125 15.125 19.125 C15.29257812 20.03507812 15.46015625 20.94515625 15.6328125 21.8828125 C15.75398438 22.58148438 15.87515625 23.28015625 16 24 C14.68 24 13.36 24 12 24 C11.01 21.03 10.02 18.06 9 15 C7.35 14.67 5.7 14.34 4 14 C4 17.3 4 20.6 4 24 C2.68 24 1.36 24 0 24 C0 16.08 0 8.16 0 0 Z " fill="#28AA9B" transform="translate(20,223)"/>
<path d="M0 0 C2.5 1.5 2.5 1.5 4 4 C4.27419517 6.72044617 4.1329525 9.2523151 4 12 C4.33 12.66 4.66 13.32 5 14 C5.37252607 17.42723983 5.36781772 19.36467848 3.625 22.375 C-0.29380732 24.80092834 -4.5146239 25.01838255 -9 24 C-10.80859375 21.96875 -10.80859375 21.96875 -12 20 C-11.34 18.68 -10.68 17.36 -10 16 C-9.01 17.32 -8.02 18.64 -7 20 C-3.535 19.505 -3.535 19.505 0 19 C0 17.35 0 15.7 0 14 C-2.97 13.67 -5.94 13.34 -9 13 C-9 12.01 -9 11.02 -9 10 C-6.36 9.67 -3.72 9.34 -1 9 C-1 7.68 -1 6.36 -1 5 C-4.05263664 4.01879536 -5.94736336 4.01879536 -9 5 C-9 5.66 -9 6.32 -9 7 C-9.66 7 -10.32 7 -11 7 C-10.625 4.0625 -10.625 4.0625 -10 1 C-6.79158965 -0.60420518 -3.4806013 -0.47462745 0 0 Z " fill="#20AB9B" transform="translate(125,223)"/>
<path d="M0 0 C0.66 0.66 1.32 1.32 2 2 C1.55527344 2.51949219 1.11054688 3.03898438 0.65234375 3.57421875 C0.08644531 4.27160156 -0.47945313 4.96898437 -1.0625 5.6875 C-1.63097656 6.37199219 -2.19945312 7.05648437 -2.78515625 7.76171875 C-4.22347871 9.93874564 -4.22347871 9.93874564 -3.84375 12.46875 C-2.95521624 15.13435127 -1.850197 17.38555899 -0.4375 19.8125 C0.24505859 20.99779297 0.24505859 20.99779297 0.94140625 22.20703125 C1.29074219 22.79871094 1.64007813 23.39039063 2 24 C0 25 0 25 -1.9375 24.375 C-4.55826456 22.62782363 -5.60252465 20.7949507 -7 18 C-7 17.34 -7 16.68 -7 16 C-7.66 16 -8.32 16 -9 16 C-9.28875 16.763125 -9.5775 17.52625 -9.875 18.3125 C-11 21 -11 21 -13 24 C-15.625 24.1875 -15.625 24.1875 -18 24 C-14.26132404 17.29616725 -14.26132404 17.29616725 -12.125 14.875 C-10.70354627 12.99758981 -10.70354627 12.99758981 -11.5625 10.5625 C-13.12150611 7.78340216 -14.99662578 5.4708282 -17 3 C-17 2.34 -17 1.68 -17 1 C-14.6875 0.6875 -14.6875 0.6875 -12 1 C-10.18116991 3.3832946 -9 4.95818337 -9 8 C-8.34 8 -7.68 8 -7 8 C-6.690625 7.21625 -6.38125 6.4325 -6.0625 5.625 C-5 3 -5 3 -4 1 C-2.0625 0.25 -2.0625 0.25 0 0 Z " fill="#23AB9A" transform="translate(269,223)"/>
<path d="M0 0 C4.07119156 0.08427626 6.79178333 0.19933906 9.75 3.25 C11.19872281 7.69903631 11.30825457 11.06067505 9.3125 15.3125 C5.63127229 18.09586729 3.2874216 17.62811847 -1.25 17.25 C-1.25 19.56 -1.25 21.87 -1.25 24.25 C-2.57 24.25 -3.89 24.25 -5.25 24.25 C-5.27887236 20.43751574 -5.29675492 16.6250593 -5.3125 12.8125 C-5.32087891 11.72388672 -5.32925781 10.63527344 -5.33789062 9.51367188 C-5.34111328 8.47919922 -5.34433594 7.44472656 -5.34765625 6.37890625 C-5.35289307 5.42056885 -5.35812988 4.46223145 -5.36352539 3.47485352 C-5.16595203 -0.39715948 -3.45531329 0.06864861 0 0 Z M-1.25 4.25 C-1.25 7.22 -1.25 10.19 -1.25 13.25 C1.10367713 13.9378236 1.10367713 13.9378236 3.75 14.25 C4.74 13.59 5.73 12.93 6.75 12.25 C7.16666667 9.25 7.16666667 9.25 6.75 6.25 C4.85244856 3.90026182 4.85244856 3.90026182 1.625 4.125 C0.67625 4.16625 -0.2725 4.2075 -1.25 4.25 Z " fill="#28A89A" transform="translate(66.25,222.75)"/>
<path d="M0 0 C0.77988281 -0.01417969 1.55976563 -0.02835938 2.36328125 -0.04296875 C4.92365374 0.21091693 6.50074835 0.85539583 8.6875 2.1875 C10.80479512 4.808913 10.80621289 7.01040179 10.5625 10.25 C10.11953683 12.95308207 9.82324157 14.02043346 8.0625 16.1875 C4.85817842 17.53668804 2.12457561 17.38579282 -1.3125 17.1875 C-1.3125 19.4975 -1.3125 21.8075 -1.3125 24.1875 C-2.6325 24.1875 -3.9525 24.1875 -5.3125 24.1875 C-5.34137236 20.37501574 -5.35925492 16.5625593 -5.375 12.75 C-5.38337891 11.66138672 -5.39175781 10.57277344 -5.40039062 9.45117188 C-5.40361328 8.41669922 -5.40683594 7.38222656 -5.41015625 6.31640625 C-5.41539307 5.35806885 -5.42062988 4.39973145 -5.42602539 3.41235352 C-5.22633749 -0.50109982 -3.47450296 0.02843292 0 0 Z M-1.3125 4.1875 C-1.3125 7.1575 -1.3125 10.1275 -1.3125 13.1875 C1.03283951 13.95706136 1.03283951 13.95706136 3.6875 14.1875 C5.70701062 13.25152685 5.70701062 13.25152685 6.6875 11.1875 C6.54659916 7.35483708 6.54659916 7.35483708 4.6875 4.1875 C2.68791636 4.14669217 0.68704746 4.14495644 -1.3125 4.1875 Z " fill="#27A799" transform="translate(220.3125,222.8125)"/>
<path d="M0 0 C0.66 0.33 1.32 0.66 2 1 C2 2.65 2 4.3 2 6 C1.071875 5.649375 0.14375 5.29875 -0.8125 4.9375 C-3.9802953 3.67617372 -3.9802953 3.67617372 -7 5 C-7.92867074 7.78601223 -8.16342217 9.61066089 -8.1875 12.5 C-8.20167969 13.2734375 -8.21585938 14.046875 -8.23046875 14.84375 C-8.13661528 17.29680056 -8.13661528 17.29680056 -6 20 C-1.35413108 19.51515724 -1.35413108 19.51515724 3 18 C3.042721 19.66611905 3.04063832 21.33382885 3 23 C1.35034831 24.64965169 -0.5476355 24.24949498 -2.8125 24.3125 C-7.61640446 24.27132368 -7.61640446 24.27132368 -10.5625 22.1875 C-13.66974155 17.45908895 -13.49822798 12.47176695 -13 7 C-10.19559405 0.58992926 -6.7360029 -0.36741834 0 0 Z " fill="#2AA597" transform="translate(176,223)"/>
<path d="M0 0 C-0.48657624 5.24881176 -3.26547398 9.0073114 -6.0625 13.3125 C-6.53494141 14.05306641 -7.00738281 14.79363281 -7.49414062 15.55664062 C-8.65587149 17.37551219 -9.82701482 19.1883659 -11 21 C-12.58158962 17.99112219 -13.43945339 15.36327963 -14 12 C-15.0725 12.350625 -16.145 12.70125 -17.25 13.0625 C-20.78720743 13.94680186 -21.74811124 14.02880551 -25 13 C-24.44538086 12.71278076 -23.89076172 12.42556152 -23.31933594 12.12963867 C-20.79427016 10.81931857 -18.27212506 9.50347091 -15.75 8.1875 C-14.87730469 7.73568359 -14.00460937 7.28386719 -13.10546875 6.81835938 C-12.26113281 6.37685547 -11.41679687 5.93535156 -10.546875 5.48046875 C-9.77182617 5.07723389 -8.99677734 4.67399902 -8.19824219 4.25854492 C-5.94157099 3.0315452 -5.94157099 3.0315452 -3.84082031 1.3449707 C-2 0 -2 0 0 0 Z " fill="#0DB5A4" transform="translate(271,119)"/>
<path d="M0 0 C3.96 0 7.92 0 12 0 C12 0.99 12 1.98 12 3 C9.36 3 6.72 3 4 3 C4 9.6 4 16.2 4 23 C2.68 23 1.36 23 0 23 C0 15.41 0 7.82 0 0 Z " fill="#2CA497" transform="translate(132,224)"/>
<path d="M0 0 C2.64 0.66 5.28 1.32 8 2 C7.34 3.32 6.68 4.64 6 6 C7.0828125 5.87625 7.0828125 5.87625 8.1875 5.75 C11.89329715 6.07940419 13.33308747 7.4772449 16 10 C16.99 11.485 16.99 11.485 18 13 C18.99 13 19.98 13 21 13 C21 14.32 21 15.64 21 17 C12.6173136 14.79402989 5.3894032 9.71683444 -1 4 C-0.67 2.68 -0.34 1.36 0 0 Z " fill="#3BB2DB" transform="translate(144,88)"/>
<path d="M0 0 C1.32 0 2.64 0 4 0 C4 7.92 4 15.84 4 24 C2.68 24 1.36 24 0 24 C0 16.08 0 8.16 0 0 Z " fill="#2DA79A" transform="translate(107,223)"/>
<path d="M0 0 C1.43739513 -0.02712066 2.87493863 -0.04645067 4.3125 -0.0625 C5.51326172 -0.07990234 5.51326172 -0.07990234 6.73828125 -0.09765625 C9 0 9 0 12 1 C12.33 2.65 12.66 4.3 13 6 C12.38125 6.268125 11.7625 6.53625 11.125 6.8125 C8.7004767 7.95556848 8.7004767 7.95556848 7 11 C5.02111039 11.72693904 3.02045442 12.39816251 1 13 C0.67 13.33 0.34 13.66 0 14 C-1.66617115 14.04063832 -3.33388095 14.042721 -5 14 C-1.30719177 10.99959331 2.47812161 8.16061101 6.328125 5.3671875 C8.12752128 4.08603089 8.12752128 4.08603089 9 2 C6.03 1.67 3.06 1.34 0 1 C0 0.67 0 0.34 0 0 Z " fill="#45AFD8" transform="translate(179,63)"/>
<path d="M0 0 C2.5 1.625 2.5 1.625 4 4 C4.25 7.25 4.25 7.25 4 10 C3.34 9.34 2.68 8.68 2 8 C1.01 8.495 1.01 8.495 0 9 C-0.33 7.68 -0.66 6.36 -1 5 C-4.05263664 4.01879536 -5.94736336 4.01879536 -9 5 C-9 5.66 -9 6.32 -9 7 C-9.66 7 -10.32 7 -11 7 C-10.625 4.0625 -10.625 4.0625 -10 1 C-6.79679603 -0.60160199 -3.47573478 -0.48770192 0 0 Z " fill="#26A799" transform="translate(125,223)"/>
<path d="M0 0 C7.4659249 -0.36717663 7.4659249 -0.36717663 10 1.375 C11 3 11 3 11 5 C10.34 5 9.68 5 9 5 C9 7.64 9 10.28 9 13 C9.66 13 10.32 13 11 13 C10.3125 14.9375 10.3125 14.9375 9 17 C6.5625 17.9375 6.5625 17.9375 4 18 C2.1875 16.5625 2.1875 16.5625 1 15 C1.804375 14.87625 2.60875 14.7525 3.4375 14.625 C4.283125 14.41875 5.12875 14.2125 6 14 C7.36952673 11.26094655 7.12621361 9.02912668 7 6 C6.67 5.34 6.34 4.68 6 4 C2.97065509 3.34227572 2.97065509 3.34227572 0 3 C0 2.01 0 1.02 0 0 Z " fill="#26A898" transform="translate(42,229)"/>
<path d="M0 0 C0.66 0.33 1.32 0.66 2 1 C-0.6258258 5.47362915 -2.21796649 7.19058191 -7 9 C-7.88693303 11.04105639 -7.88693303 11.04105639 -8 13 C-8.99 13 -9.98 13 -11 13 C-11.226875 13.721875 -11.45375 14.44375 -11.6875 15.1875 C-13.91241568 19.95517645 -17.7568115 23.01405254 -22 26 C-17.27508528 15.70810655 -8.01098774 7.77065811 0 0 Z " fill="#4AACCE" transform="translate(55,46)"/>
<path d="M0 0 C0.66 0.33 1.32 0.66 2 1 C0.88625 1.5775 -0.2275 2.155 -1.375 2.75 C-4.39772831 4.45902747 -5.74312742 5.68642683 -7 9 C-9 10 -9 10 -10.8359375 9.5078125 C-13.42810666 8.89954176 -15.05200883 9.24681152 -17.625 9.875 C-18.40101563 10.05804688 -19.17703125 10.24109375 -19.9765625 10.4296875 C-22.04531387 10.94440719 -22.04531387 10.94440719 -24 12 C-24.66 11.34 -25.32 10.68 -26 10 C-25.19163696 9.7054895 -25.19163696 9.7054895 -24.36694336 9.4050293 C-21.88972109 8.50120305 -19.41360862 7.5943725 -16.9375 6.6875 C-16.08994141 6.37876953 -15.24238281 6.07003906 -14.36914062 5.75195312 C-10.52277297 4.34112329 -6.73311286 2.90581684 -3.00390625 1.20703125 C-1.51697266 0.60955078 -1.51697266 0.60955078 0 0 Z " fill="#24AC9B" transform="translate(244,133)"/>
<path d="M0 0 C-0.49536734 5.23231757 -3.22785387 9.0041229 -6 13.3125 C-6.4640625 14.05306641 -6.928125 14.79363281 -7.40625 15.55664062 C-9.92773558 19.53311134 -9.92773558 19.53311134 -11 21 C-11.33 21 -11.66 21 -12 21 C-12.19878036 17.42195344 -12.04108797 15.00791911 -10 12 C-9.01 11.67 -8.02 11.34 -7 11 C-5.78130071 8.49552484 -5.78130071 8.49552484 -5 6 C-6.65 6 -8.3 6 -10 6 C-2.6 0 -2.6 0 0 0 Z " fill="#2BAB99" transform="translate(271,119)"/>
<path d="M0 0 C0.89525391 0.2165625 0.89525391 0.2165625 1.80859375 0.4375 C13.6204812 2.96485779 26.29583607 3.22080187 38 0 C38 0.66 38 1.32 38 2 C34.38841682 4.40772212 32.75776095 4.23337718 28.46875 4.1953125 C27.18355469 4.18886719 25.89835937 4.18242188 24.57421875 4.17578125 C23.21614294 4.15908762 21.85807002 4.14215798 20.5 4.125 C19.14193358 4.11496423 17.7838601 4.10583942 16.42578125 4.09765625 C13.93551132 4.08017191 11.44526458 4.05859857 8.95507812 4.03173828 C6.97013837 4.01041953 4.98505423 4 3 4 C1.3125 2 1.3125 2 0 0 Z " fill="#4EAAC9" transform="translate(131,79)"/>
<path d="M0 0 C3.31686552 0.01786463 3.9727453 0.14069624 6.6875 2.3125 C7.1825 2.9725 7.6775 3.6325 8.1875 4.3125 C7.8575 4.9725 7.5275 5.6325 7.1875 6.3125 C6.5275 5.9825 5.8675 5.6525 5.1875 5.3125 C5.1875 7.9525 5.1875 10.5925 5.1875 13.3125 C4.8575 13.3125 4.5275 13.3125 4.1875 13.3125 C3.8575 10.6725 3.5275 8.0325 3.1875 5.3125 C0.8775 4.6525 -1.4325 3.9925 -3.8125 3.3125 C-3.8125 6.9425 -3.8125 10.5725 -3.8125 14.3125 C-4.1425 14.3125 -4.4725 14.3125 -4.8125 14.3125 C-4.83935938 12.16673363 -4.85883088 10.02087355 -4.875 7.875 C-4.88660156 6.68003906 -4.89820312 5.48507813 -4.91015625 4.25390625 C-4.76402119 -0.1476818 -4.56215199 0.37394688 0 0 Z " fill="#21A797" transform="translate(97.8125,228.6875)"/>
<path d="M0 0 C0.66 0 1.32 0 2 0 C2 3.3 2 6.6 2 10 C5.465 9.505 5.465 9.505 9 9 C8.01 10.485 8.01 10.485 7 12 C5.68 12 4.36 12 3 12 C2.67 15.3 2.34 18.6 2 22 C1.34 22 0.68 22 0 22 C0 14.74 0 7.48 0 0 Z " fill="#12B3A0" transform="translate(21,224)"/>
<path d="M0 0 C-1.0725 0.433125 -2.145 0.86625 -3.25 1.3125 C-5.55128286 2.28097575 -7.10936945 3.0894841 -9.0625 4.6875 C-11.82339857 6.55778613 -13.74261131 6.41583685 -17 6 C-18.68359375 4.4765625 -18.68359375 4.4765625 -20 3 C-17.41932437 2.30081695 -14.83627153 1.61538951 -12.25 0.9375 C-11.15558594 0.63875977 -11.15558594 0.63875977 -10.0390625 0.33398438 C-6.28968956 -0.63744407 -3.69725762 -1.15449387 0 0 Z " fill="#42AFD6" transform="translate(123,16)"/>
<path d="M0 0 C2.97 0 5.94 0 9 0 C9 0.33 9 0.66 9 1 C7.02 1 5.04 1 3 1 C2.67 6.94 2.34 12.88 2 19 C1.34 19 0.68 19 0 19 C0 12.73 0 6.46 0 0 Z " fill="#0BB6A1" transform="translate(133,225)"/>
<path d="M0 0 C1.0915857 0.86468305 2.17281969 1.7424363 3.25 2.625 C3.85328125 3.11226563 4.4565625 3.59953125 5.078125 4.1015625 C7 6 7 6 11 12 C2.585 10.515 2.585 10.515 -6 9 C-6 8.67 -6 8.34 -6 8 C-4.37509046 7.97301811 -2.75005367 7.95361243 -1.125 7.9375 C-0.22007812 7.92589844 0.68484375 7.91429687 1.6171875 7.90234375 C4 8 4 8 6 9 C5.34 8.01 4.68 7.02 4 6 C2.35 6.33 0.7 6.66 -1 7 C-0.67 4.69 -0.34 2.38 0 0 Z " fill="#27A998" transform="translate(149,123)"/>
<path d="M0 0 C1.65 0.33 3.3 0.66 5 1 C5 1.99 5 2.98 5 4 C4.67 3.67 4.34 3.34 4 3 C3.67 3.66 3.34 4.32 3 5 C5.31 5.33 7.62 5.66 10 6 C10 6.33 10 6.66 10 7 C3.44074057 6.61020794 -1.94526627 5.57886807 -8 3 C-4.90279155 2.12159004 -3.09354597 2.00564594 0 3 C0 2.01 0 1.02 0 0 Z " fill="#46B0D5" transform="translate(176,104)"/>
<path d="M0 0 C7.48620682 1.08165726 14.09176345 2.91302228 21 6 C17.73842267 7.08719244 15.41589896 7.29071481 12 7 C11.34 6.01 10.68 5.02 10 4 C9.401875 4.165 8.80375 4.33 8.1875 4.5 C6 5 6 5 3 5 C2.67 4.01 2.34 3.02 2 2 C1.34 1.34 0.68 0.68 0 0 Z " fill="#49ACCF" transform="translate(178,17)"/>
<path d="M0 0 C1.23556641 0.01740234 1.23556641 0.01740234 2.49609375 0.03515625 C3.32238281 0.04417969 4.14867188 0.05320312 5 0.0625 C5.63808594 0.07410156 6.27617188 0.08570312 6.93359375 0.09765625 C3.51952283 1.9644635 0.02498072 3.09012297 -3.69140625 4.22265625 C-4.83867188 4.57585937 -5.9859375 4.9290625 -7.16796875 5.29296875 C-10.06640625 6.09765625 -10.06640625 6.09765625 -12.06640625 6.09765625 C-12.06640625 5.43765625 -12.06640625 4.77765625 -12.06640625 4.09765625 C-11.40640625 4.09765625 -10.74640625 4.09765625 -10.06640625 4.09765625 C-9.73640625 3.10765625 -9.40640625 2.11765625 -9.06640625 1.09765625 C-7.61234375 1.12859375 -7.61234375 1.12859375 -6.12890625 1.16015625 C-2.85118805 1.09326404 -2.90775361 0.13741747 0 0 Z " fill="#49B0D3" transform="translate(76.06640625,66.90234375)"/>
<path d="M0 0 C1.52519276 0.08937803 3.04681929 0.24537146 4.5625 0.4375 C5.38878906 0.53933594 6.21507812 0.64117187 7.06640625 0.74609375 C7.70449219 0.82988281 8.34257813 0.91367188 9 1 C6.05442083 2.96371945 3.24961274 4.29765337 0 5.6875 C-1.051875 6.14511719 -2.10375 6.60273437 -3.1875 7.07421875 C-6 8 -6 8 -9 7 C-8.360625 6.71125 -7.72125 6.4225 -7.0625 6.125 C-4.84793921 5.17176549 -4.84793921 5.17176549 -4 3 C-3.01 2.34 -2.02 1.68 -1 1 C-0.67 0.67 -0.34 0.34 0 0 Z " fill="#50ADCF" transform="translate(55,72)"/>
<path d="M0 0 C5.75 -0.125 5.75 -0.125 8 1 C8 1.66 8 2.32 8 3 C3.00703705 5.9445679 -1.33557626 6.63495936 -7 7 C-7 6.34 -7 5.68 -7 5 C-4.36 5 -1.72 5 1 5 C0.67 3.35 0.34 1.7 0 0 Z " fill="#3EB2D9" transform="translate(98,58)"/>
<path d="M0 0 C0.66 0.66 1.32 1.32 2 2 C0.35 4.31 -1.3 6.62 -3 9 C-3.33 8.34 -3.66 7.68 -4 7 C-4.99 7.33 -5.98 7.66 -7 8 C-5.125 3.25 -5.125 3.25 -4 1 C-2.0625 0.25 -2.0625 0.25 0 0 Z " fill="#2BA69C" transform="translate(269,223)"/>
<path d="M0 0 C0.66 0.33 1.32 0.66 2 1 C2.85792053 3.97855507 3.15681685 6.90692285 3 10 C1.0625 12.5625 1.0625 12.5625 -1 14 C-1 13.34 -1 12.68 -1 12 C-1.99 11.67 -2.98 11.34 -4 11 C-3.34 10.67 -2.68 10.34 -2 10 C-2 7.69 -2 5.38 -2 3 C-1.34 3 -0.68 3 0 3 C0 2.01 0 1.02 0 0 Z " fill="#2EA197" transform="translate(74,225)"/>
<path d="M0 0 C1.14077657 3.42232972 1.09815117 6.08673217 1.0625 9.6875 C1.05347656 10.86699219 1.04445312 12.04648438 1.03515625 13.26171875 C1.02355469 14.16535156 1.01195312 15.06898438 1 16 C0.01 16 -0.98 16 -2 16 C-2.05423638 14.08364783 -2.09289963 12.16685075 -2.125 10.25 C-2.14820313 9.18265625 -2.17140625 8.1153125 -2.1953125 7.015625 C-2.00487687 4.07529894 -1.52670104 2.47638122 0 0 Z " fill="#1AB09E" transform="translate(166,227)"/>
<path d="M0 0 C2.97 0.33 5.94 0.66 9 1 C8.525625 1.598125 8.05125 2.19625 7.5625 2.8125 C5.83534256 5.00382924 5.83534256 5.00382924 5 8 C2.5 6.25 2.5 6.25 0 4 C0 2.68 0 1.36 0 0 Z " fill="#2EBFE4" transform="translate(136,82)"/>
<path d="M0 0 C0.68707555 2.49064888 1 4.37886292 1 7 C-1.21934164 10.32901247 -2.34683329 10.75023244 -6 12 C-4.43358249 7.69235185 -2.31663844 3.93828536 0 0 Z " fill="#46ADD4" transform="translate(29,76)"/>
<path d="M0 0 C0.66 0.33 1.32 0.66 2 1 C-1.75 5.875 -1.75 5.875 -4 7 C-5.99960012 7.039992 -8.00047242 7.04346799 -10 7 C-7.20283196 3.70921407 -3.80471422 1.93694542 0 0 Z " fill="#44AFD5" transform="translate(80,29)"/>
<path d="M0 0 C0 0.99 0 1.98 0 3 C-3.3 3 -6.6 3 -10 3 C-10 2.01 -10 1.02 -10 0 C-6.7169902 -1.6415049 -3.57454967 -0.51888624 0 0 Z " fill="#1EB0A0" transform="translate(73,237)"/>
<path d="M0 0 C4.15151338 1.44202476 7.29978445 3.5010438 10.8125 6.125 C11.78832031 6.84945312 12.76414063 7.57390625 13.76953125 8.3203125 C14.50558594 8.87460938 15.24164063 9.42890625 16 10 C15.01 10.495 15.01 10.495 14 11 C13.4225 10.525625 12.845 10.05125 12.25 9.5625 C10.17807948 7.89914675 10.17807948 7.89914675 8.0625 7.625 C4.86002277 6.65455235 3.19999579 4.43783318 1 2 C0.67 1.34 0.34 0.68 0 0 Z " fill="#29A899" transform="translate(133,112)"/>
<path d="M0 0 C0.66 0 1.32 0 2 0 C2.66 0.99 3.32 1.98 4 3 C4.66 2.34 5.32 1.68 6 1 C7.64826111 3.96687001 8.44271087 6.65626525 9 10 C7.86800647 9.0919838 6.74467637 8.17316174 5.625 7.25 C4.99851562 6.73953125 4.37203125 6.2290625 3.7265625 5.703125 C1.91687682 3.91800519 0.99882545 2.32050356 0 0 Z " fill="#22AD9D" transform="translate(39,151)"/>
<path d="M0 0 C0.38909985 1.45463481 0.76088029 2.91391207 1.125 4.375 C1.43824219 5.59316406 1.43824219 5.59316406 1.7578125 6.8359375 C1.83773437 7.55007812 1.91765625 8.26421875 2 9 C1.34 9.66 0.68 10.32 0 11 C0 8.36 0 5.72 0 3 C-0.5775 2.87625 -1.155 2.7525 -1.75 2.625 C-4.02335767 1.99351176 -5.9253529 1.11141809 -8 0 C-4.71023192 -1.09658936 -3.28696233 -0.79953138 0 0 Z " fill="#16B2A1" transform="translate(74,225)"/>
<path d="M0 0 C3.96 0 7.92 0 12 0 C12 0.66 12 1.32 12 2 C12.99 1.67 13.98 1.34 15 1 C15 1.99 15 2.98 15 4 C9.76119922 3.44854729 5.02649303 2.57077907 0 1 C0 0.67 0 0.34 0 0 Z " fill="#21AB98" transform="translate(104,194)"/>
<path d="M0 0 C2.64 0.33 5.28 0.66 8 1 C5.66460191 2.55693206 3.42031244 3.90200646 0.9375 5.1875 C0.24527344 5.55230469 -0.44695312 5.91710937 -1.16015625 6.29296875 C-1.76730469 6.52628906 -2.37445313 6.75960937 -3 7 C-3.66 6.67 -4.32 6.34 -5 6 C-4.01 5.67 -3.02 5.34 -2 5 C-2 4.34 -2 3.68 -2 3 C-1.34 2.67 -0.68 2.34 0 2 C0 1.34 0 0.68 0 0 Z " fill="#27AC9B" transform="translate(117,132)"/>
<path d="M0 0 C0.33 1.32 0.66 2.64 1 4 C-0.03125 4.144375 -1.0625 4.28875 -2.125 4.4375 C-5.42549813 4.91660457 -8.71268341 5.43875083 -12 6 C-8.59780735 3.25207517 -4.51535412 0 0 0 Z " fill="#25AE9A" transform="translate(258,127)"/>
<path d="M0 0 C2 1.8125 2 1.8125 4 4 C4 4.99 4 5.98 4 7 C0.535 8.485 0.535 8.485 -3 10 C-3 9.34 -3 8.68 -3 8 C-2.34 8 -1.68 8 -1 8 C-0.67 5.36 -0.34 2.72 0 0 Z " fill="#4DACCD" transform="translate(267,85)"/>
<path d="M0 0 C4.10958767 1.45044271 7.43258745 3.51110752 11 6 C8 7 8 7 4.375 5.8125 C1 4 1 4 0.0625 1.8125 C0.041875 1.214375 0.02125 0.61625 0 0 Z " fill="#46AFCE" transform="translate(217,33)"/>
<path d="M0 0 C1.65 0 3.3 0 5 0 C5.66 1.65 6.32 3.3 7 5 C6.34 5 5.68 5 5 5 C4.67 5.66 4.34 6.32 4 7 C0 2.25 0 2.25 0 0 Z " fill="#24A89C" transform="translate(252,224)"/>
<path d="M0 0 C0 4.41236026 -2.0697293 5.78384923 -5 9 C-5.33 9 -5.66 9 -6 9 C-6 7.02 -6 5.04 -6 3 C-4.02 2.01 -2.04 1.02 0 0 Z " fill="#1DAD9C" transform="translate(255,144)"/>
<path d="M0 0 C1.258125 0.33 2.51625 0.66 3.8125 1 C6.38987302 1.67603227 8.30212925 2 11 2 C11 3.32 11 4.64 11 6 C6.95743617 4.77782954 3.50711041 3.37245704 0 1 C0 0.67 0 0.34 0 0 Z " fill="#48B0D1" transform="translate(154,99)"/>
<path d="M0 0 C0 0.66 0 1.32 0 2 C-3.42094242 4.28062828 -4.68187222 4.21925007 -8.6875 4.125 C-10.17830078 4.09792969 -10.17830078 4.09792969 -11.69921875 4.0703125 C-12.45847656 4.04710938 -13.21773437 4.02390625 -14 4 C-9.70669369 1.70895313 -4.92247262 0 0 0 Z " fill="#4AAFD1" transform="translate(169,79)"/>
<path d="M0 0 C-3.1254959 2.64465038 -6.08788267 3.84414715 -10 5 C-10 3.68 -10 2.36 -10 1 C-6.78548731 -0.60725635 -3.56387464 -0.05748185 0 0 Z " fill="#48B0D3" transform="translate(259,97)"/>
<path d="M0 0 C2.52588702 2.36292656 3.88820837 3.66462511 5 7 C4.01 7.495 4.01 7.495 3 8 C0.9375 7.25 0.9375 7.25 -1 6 C-1.33 5.01 -1.66 4.02 -2 3 C-1.34 2.67 -0.68 2.34 0 2 C0 1.34 0 0.68 0 0 Z " fill="#33A698" transform="translate(266,240)"/>
<path d="M0 0 C0 1.98 0 3.96 0 6 C-0.33 4.68 -0.66 3.36 -1 2 C-1.99 2.66 -2.98 3.32 -4 4 C-6.04296875 4.1953125 -6.04296875 4.1953125 -8.1875 4.125 C-10.0746875 4.063125 -10.0746875 4.063125 -12 4 C-12 3.67 -12 3.34 -12 3 C-10.02 3 -8.04 3 -6 3 C-6 2.34 -6 1.68 -6 1 C-3 0 -3 0 0 0 Z " fill="#2B9C94" transform="translate(94,223)"/>
<path d="M0 0 C1.65 0 3.3 0 5 0 C1.2440786 3.42931954 -3.23466745 4.56429083 -8 6 C-6.8125 4 -6.8125 4 -5 2 C-2.3125 1.75 -2.3125 1.75 0 2 C0 1.34 0 0.68 0 0 Z " fill="#2AA897" transform="translate(203,185)"/>
<path d="M0 0 C1.37562854 1.28965176 2.70766393 2.62689293 4 4 C4 4.66 4 5.32 4 6 C4.66 6.66 5.32 7.32 6 8 C3.625 7.6875 3.625 7.6875 1 7 C-1 4 -1 4 -0.625 1.8125 C-0.41875 1.214375 -0.2125 0.61625 0 0 Z " fill="#28AE9F" transform="translate(114,239)"/>
<path d="M0 0 C0.99 0.33 1.98 0.66 3 1 C2.41196203 4.02419525 1.77321882 7.01758453 1 10 C0.01 9.67 -0.98 9.34 -2 9 C-1.34 8.67 -0.68 8.34 0 8 C0 5.36 0 2.72 0 0 Z " fill="#12B5A2" transform="translate(103,234)"/>
<path d="M0 0 C0.99 0.33 1.98 0.66 3 1 C3 3.64 3 6.28 3 9 C2.34 9 1.68 9 1 9 C1 7.02 1 5.04 1 3 C0.01 3 -0.98 3 -2 3 C-2 2.34 -2 1.68 -2 1 C-1.34 0.67 -0.68 0.34 0 0 Z " fill="#0FB2A2" transform="translate(246,236)"/>
<path d="M0 0 C1.32 0 2.64 0 4 0 C3.34 2.31 2.68 4.62 2 7 C1.34 6.34 0.68 5.68 0 5 C-0.99 5.495 -0.99 5.495 -2 6 C-1.34 4.02 -0.68 2.04 0 0 Z " fill="#2CA598" transform="translate(31,224)"/>
<path d="M0 0 C0.99 0.33 1.98 0.66 3 1 C2.67 1.66 2.34 2.32 2 3 C2.33 3.33 2.66 3.66 3 4 C3.33 4.66 3.66 5.32 4 6 C1.03 5.01 -1.94 4.02 -5 3 C-3.68 2.34 -2.36 1.68 -1 1 C-0.67 0.67 -0.34 0.34 0 0 Z " fill="#1BAE9B" transform="translate(91,185)"/>
<path d="M0 0 C0.99 0 1.98 0 3 0 C3 2.31 3 4.62 3 7 C2.01 7.33 1.02 7.66 0 8 C0 5.36 0 2.72 0 0 Z " fill="#12B09E" transform="translate(159,232)"/>
<path d="M0 0 C2.3125 1.5 2.3125 1.5 4 3 C1.69 3 -0.62 3 -3 3 C-3.33 3.66 -3.66 4.32 -4 5 C-5.32 4.01 -6.64 3.02 -8 2 C-4.74236778 -0.17175481 -3.77560787 -0.46043998 0 0 Z " fill="#35A297" transform="translate(198,224)"/>
<path d="M0 0 C0.33 0 0.66 0 1 0 C1.144375 1.2375 1.28875 2.475 1.4375 3.75 C1.78688502 6.56504499 2.20379366 9.2701497 3 12 C2.01 12.495 2.01 12.495 1 13 C1 12.34 1 11.68 1 11 C0.34 11 -0.32 11 -1 11 C-0.67 7.37 -0.34 3.74 0 0 Z " fill="#2DA99C" transform="translate(158,231)"/>
<path d="M0 0 C0 0.66 0 1.32 0 2 C-0.66 2 -1.32 2 -2 2 C-2 4.31 -2 6.62 -2 9 C-3.5 7.75 -3.5 7.75 -5 6 C-5 4.68 -5 3.36 -5 2 C-2 0 -2 0 0 0 Z " fill="#12B4A5" transform="translate(265,230)"/>
<path d="M0 0 C0.33 0.99 0.66 1.98 1 3 C0.67 3.66 0.34 4.32 0 5 C-2.02045442 4.39816251 -4.02111039 3.72693904 -6 3 C-6.33 2.34 -6.66 1.68 -7 1 C-2.25 0 -2.25 0 0 0 Z " fill="#1CAE9E" transform="translate(78,178)"/>
<path d="M0 0 C0.33 0.66 0.66 1.32 1 2 C2.98 1.67 4.96 1.34 7 1 C4.14693203 3.32472205 1.45925163 4.7508258 -2 6 C-1.34 4.02 -0.68 2.04 0 0 Z " fill="#4FA6C7" transform="translate(22,88)"/>
<path d="M0 0 C1.98 1.65 3.96 3.3 6 5 C3.66682784 5.77772405 1.38564077 6.42415568 -1 7 C-0.67 4.69 -0.34 2.38 0 0 Z " fill="#42AED5" transform="translate(243,53)"/>
<path d="M0 0 C2.97 0 5.94 0 9 0 C9 0.33 9 0.66 9 1 C7.02 1 5.04 1 3 1 C2.67 2.32 2.34 3.64 2 5 C1.34 5 0.68 5 0 5 C0 3.35 0 1.7 0 0 Z " fill="#18B0A1" transform="translate(133,225)"/>
<path d="M0 0 C1.134375 0.020625 2.26875 0.04125 3.4375 0.0625 C3.1075 1.7125 2.7775 3.3625 2.4375 5.0625 C1.4475 4.4025 0.4575 3.7425 -0.5625 3.0625 C-0.5625 2.7325 -0.5625 2.4025 -0.5625 2.0625 C-1.8825 1.7325 -3.2025 1.4025 -4.5625 1.0625 C-3.5625 0.0625 -3.5625 0.0625 0 0 Z " fill="#19B09F" transform="translate(262.5625,124.9375)"/>
<path d="M0 0 C-0.66 1.98 -1.32 3.96 -2 6 C-2.99 6 -3.98 6 -5 6 C-5 4.68 -5 3.36 -5 2 C-2 0 -2 0 0 0 Z " fill="#35A598" transform="translate(197,241)"/>
<path d="M0 0 C2.64 0 5.28 0 8 0 C7.67 0.99 7.34 1.98 7 3 C4.625 3.1875 4.625 3.1875 2 3 C1.34 2.01 0.68 1.02 0 0 Z " fill="#1DA89B" transform="translate(185,244)"/>
<path d="M0 0 C2.97903734 2.97903734 4 5.80285329 4 10 C0.125 8.25 0.125 8.25 -1 6 C-0.34 6 0.32 6 1 6 C0.67 4.02 0.34 2.04 0 0 Z " fill="#2DA18F" transform="translate(183,237)"/>
<path d="M0 0 C2.97 0.33 5.94 0.66 9 1 C5.1496895 3.56687367 3.41430237 2.83288724 -1 2 C-0.67 1.34 -0.34 0.68 0 0 Z " fill="#46B0D4" transform="translate(55,72)"/>
<path d="M0 0 C2.31 0.33 4.62 0.66 7 1 C7 1.99 7 2.98 7 4 C5.02 4.99 5.02 4.99 3 6 C2.814375 5.071875 2.814375 5.071875 2.625 4.125 C2.12802644 1.80879168 2.12802644 1.80879168 0 0 Z " fill="#44B0DA" transform="translate(178,17)"/>
<path d="M0 0 C0.99 0.99 1.98 1.98 3 3 C2.34 4.98 1.68 6.96 1 9 C0.34 9 -0.32 9 -1 9 C-0.67 6.03 -0.34 3.06 0 0 Z " fill="#19B2A0" transform="translate(217,236)"/>
<path d="M0 0 C0.99 0 1.98 0 3 0 C2.67 2.64 2.34 5.28 2 8 C1.34 8 0.68 8 0 8 C0 5.36 0 2.72 0 0 Z " fill="#14B49D" transform="translate(234,238)"/>
<path d="M0 0 C2 2 2 2 2.125 5.125 C2.08375 6.07375 2.0425 7.0225 2 8 C1.34 7.34 0.68 6.68 0 6 C-0.99 6.495 -0.99 6.495 -2 7 C-2 5.68 -2 4.36 -2 3 C-1.34 3 -0.68 3 0 3 C0 2.01 0 1.02 0 0 Z " fill="#2EA394" transform="translate(127,225)"/>
<path d="" fill="#72808D" transform="translate(0,0)"/>
</svg>
